<svg width="206" height="55" viewBox="0 0 206 55" fill="none" xmlns="http://www.w3.org/2000/svg">
<g clip-path="url(#clip0_122_700)">
<path d="M36.7396 10.33C38.9958 10.33 40.8248 8.50416 40.8248 6.2519C40.8248 3.99964 38.9958 2.17383 36.7396 2.17383C34.4834 2.17383 32.6544 3.99964 32.6544 6.2519C32.6544 8.50416 34.4834 10.33 36.7396 10.33Z" fill="#F3974E"/>
<path d="M48.3729 23.8946C51.4061 23.8946 53.8649 21.44 53.8649 18.4121C53.8649 15.3843 51.4061 12.9297 48.3729 12.9297C45.3398 12.9297 42.8809 15.3843 42.8809 18.4121C42.8809 21.44 45.3398 23.8946 48.3729 23.8946Z" fill="#F3974E"/>
<path d="M35.9415 25.3937C38.052 25.3937 39.7629 23.6858 39.7629 21.5789C39.7629 19.4721 38.052 17.7642 35.9415 17.7642C33.831 17.7642 32.1201 19.4721 32.1201 21.5789C32.1201 23.6858 33.831 25.3937 35.9415 25.3937Z" fill="#71C0C6"/>
<path d="M42.8944 37.857C45.3523 37.857 47.3449 35.868 47.3449 33.4144C47.3449 30.9607 45.3523 28.9717 42.8944 28.9717C40.4365 28.9717 38.444 30.9607 38.444 33.4144C38.444 35.868 40.4365 37.857 42.8944 37.857Z" fill="#71C0C6"/>
<path d="M21.5961 38.0125C21.6231 37.6749 21.826 37.4791 22.1101 37.3306C23.057 36.8175 24.0039 36.2908 24.944 35.7642C25.2348 35.5954 25.6001 35.5144 25.7692 35.1903C25.7015 34.9 25.4716 34.7582 25.2822 34.5894C22.9352 32.4828 20.5815 30.383 18.2549 28.2562C17.7814 27.8241 17.3147 27.6283 16.6451 27.6418C12.1947 27.7093 8.54916 24.7318 7.64961 20.3769C7.10176 17.7369 7.60903 15.3198 9.13082 13.112C9.42166 12.6866 9.74631 12.2815 10.0642 11.8696C11.0855 10.5395 12.4382 9.68206 14.075 9.4525C15.3601 9.2702 16.2799 8.73681 17.0915 7.73079C18.1196 6.46146 19.31 5.31365 20.453 4.13209C20.7641 3.80801 21.0009 3.48392 21.1091 3.05181C21.2917 2.32262 21.711 1.71496 22.2115 1.16806C23.9903 -0.783203 27.1083 -0.168791 28.0214 2.29561C28.0417 3.34213 28.7316 3.60545 29.6176 3.76075C30.3346 3.88228 31.0244 4.1726 31.7346 4.37516C32.3839 4.55746 32.438 4.5507 32.81 4.00381C33.2091 3.42991 33.669 2.91677 34.2101 2.48466C35.2314 1.67445 36.3812 1.30985 37.7136 1.47189C40.02 1.74871 41.8123 4.07133 41.5215 6.66401C41.4471 7.35269 41.2509 8.02112 40.906 8.62878C40.7369 8.93261 40.7504 9.16892 41.0277 9.42549C42.2181 10.5598 43.3882 11.7076 44.5583 12.8554C45.3564 13.6454 45.2617 13.5643 46.0463 13.0377C46.8985 12.4705 47.8116 12.1667 48.8532 12.1802C50.9566 12.2072 52.5122 13.1457 53.4727 14.9822C55.7114 19.2426 52.4175 24.5765 47.8995 24.6373C47.7236 24.6373 47.5546 24.6305 47.3787 24.644C47.142 24.6575 46.9797 24.7858 46.912 25.0154C46.5738 26.1294 46.2289 27.2434 45.911 28.3642C45.796 28.7558 45.8501 29.1069 46.1951 29.4175C46.5468 29.7348 46.8241 30.1264 47.1285 30.491C47.4869 30.9232 47.5613 30.9637 48.1227 30.7679C48.6164 30.5991 49.0899 30.3898 49.5769 30.221C50.1585 30.0184 50.7537 29.9306 51.3624 30.0927C52.0794 30.275 52.3567 30.7611 52.0794 31.4565C51.7074 32.395 51.1054 33.1918 50.3276 33.8264C49.7595 34.2923 49.1575 34.7177 48.5217 35.0823C47.8657 35.4536 47.3517 35.8992 46.9526 36.5609C46.2357 37.756 45.1467 38.5122 43.8075 38.9038C42.6713 39.2346 41.5688 39.1266 40.5272 38.5999C40.0267 38.3501 39.56 38.3231 39.0325 38.3974C38.0044 38.5324 36.9696 38.6067 35.9415 38.7215C35.813 38.735 35.6845 38.8092 35.7183 38.9645C35.7319 39.032 35.8198 39.1131 35.8874 39.1266C36.4353 39.2481 36.9831 39.3966 37.5377 39.4709C39.9794 39.7882 42.4278 40.0921 44.8694 40.3892C45.5999 40.4769 46.3371 40.4634 47.0676 40.3216C47.4463 40.2474 47.8386 40.1799 48.2242 40.3081L48.2174 40.2744C47.1487 41.4559 45.769 41.6585 44.2945 41.4289C41.8664 41.0508 39.4383 40.639 37.0169 40.2001C36.3 40.0718 35.6034 39.8153 34.9135 39.5789C34.6835 39.4979 34.4806 39.3089 34.2912 39.1401C34.1424 39.0118 34.1898 38.6674 34.3656 38.5729C34.6294 38.4379 34.9 38.2826 35.1908 38.2218C35.8198 38.08 36.4623 37.972 37.0981 37.891C37.6933 37.8167 38.275 37.729 38.9378 37.5534C38.4711 36.6284 38.018 35.8047 37.815 34.9337C37.4701 34.7447 37.2604 34.9607 37.044 35.0485C36.1647 35.4131 35.3058 35.8114 34.4265 36.1625C34.0816 36.3043 33.8178 36.4394 33.8043 36.8715C33.7975 37.1213 33.7096 37.3779 33.6284 37.6209C33.2294 38.8092 32.2148 39.5924 31.038 39.6262C29.8746 39.66 28.7722 38.9173 28.3055 37.7965C28.2581 37.6749 28.204 37.5534 28.1905 37.4251C28.1094 36.5474 27.3248 36.3111 26.7634 35.8722C26.5876 35.7372 26.3441 35.7844 26.1412 35.8655C24.5855 36.4866 22.9826 37.0065 21.6028 38.0125C21.5758 37.999 21.5961 38.0125 21.5961 38.0125ZM8.72501 18.3919C8.66414 19.9718 9.03613 21.4234 9.86805 22.7265C11.4981 25.2854 13.818 26.7438 16.8954 26.5818C19.9999 26.4197 22.2859 24.8128 23.6251 22.0176C25.1063 18.9252 24.3218 15.1848 21.8598 12.7001C18.0587 8.87184 11.1328 10.0872 9.28639 15.3738C8.94144 16.3596 8.69119 17.3588 8.72501 18.3919ZM24.5247 22.794C24.802 22.794 25.0184 22.8075 25.2281 22.794C26.2629 22.6995 27.291 22.5915 28.3258 22.4969C29.1848 22.4227 30.0505 22.3551 30.9095 22.2876C31.2544 22.2606 31.4776 22.1121 31.4979 21.734C31.5047 21.6462 31.5114 21.5584 31.5182 21.4774C31.7143 19.5869 32.7559 18.3108 34.4197 17.4871C34.927 17.2373 35.441 17.055 36.0295 17.0753C37.8015 17.1293 39.2489 18.1758 39.8238 19.8975C39.9861 20.3769 40.0876 20.8833 40.2296 21.4369C41.0007 21.3086 41.7176 21.2006 42.4346 21.0723C42.6848 21.0318 42.7863 20.8563 42.7524 20.6064C42.6645 19.965 42.536 19.3304 42.5766 18.6754C42.6713 17.2643 43.138 15.9882 43.9969 14.8472C44.4163 14.2935 44.4095 14.2665 43.8752 13.7939C42.6375 12.7136 41.4674 11.5658 40.3717 10.337C40.2567 10.2087 40.1147 10.1209 39.9591 9.98589C38.8228 10.8569 37.6121 11.4915 36.1444 11.37C34.6835 11.2485 33.5811 10.4585 32.695 9.39848C32.2689 9.49976 32.0322 9.76983 31.7617 9.97913C29.9423 11.3768 28.0823 12.7069 26.1682 13.9627C25.8436 14.1787 25.5189 14.3948 25.1943 14.6041C24.9102 14.7864 24.7411 15.0025 24.8899 15.3536C24.9237 15.4346 24.9508 15.5156 24.9711 15.5966C25.573 17.7909 25.5054 19.9448 24.6329 22.0581C24.5517 22.2539 24.457 22.4497 24.5247 22.794ZM32.6815 33.2525C32.8168 33.3808 32.9859 33.3808 33.1617 33.3605C34.2371 33.2525 35.3058 33.0837 36.3879 33.05C37.3889 33.0162 38.1735 32.8137 38.3155 31.6591C39.161 29.6876 41.7853 27.6958 44.3081 28.371C44.7544 28.4925 44.9235 28.3845 45.0859 27.9186C45.4308 26.8991 45.7419 25.8661 46.0598 24.8398C46.1477 24.5495 46.0463 24.3334 45.7757 24.1984C45.1873 23.9148 44.5651 23.6177 44.2066 23.0843C43.6452 22.2336 42.9621 22.0041 42.022 22.3079C41.7379 22.3957 41.4268 22.4294 41.1224 22.4294C40.3446 22.4227 39.9388 22.7603 39.6141 23.5097C38.8431 25.2854 37.4363 26.2442 35.4478 26.2374C35.3193 26.2374 35.1908 26.2307 35.0623 26.2239C34.812 26.2172 34.6565 26.3319 34.5888 26.5683C34.5347 26.7303 34.4806 26.8991 34.4333 27.0611C33.8787 28.9179 33.3308 30.7814 32.7762 32.6381C32.7153 32.8339 32.6003 33.0297 32.6815 33.2525ZM53.0466 18.1623C53.0601 16.7984 52.8369 16.0152 52.262 15.2185C50.8822 13.2943 48.515 13.1592 46.6753 14.0572C45.0656 14.8472 44.281 16.2245 43.9563 17.926C43.5844 19.8502 44.4839 21.8623 46.1139 22.8143C47.4125 23.5705 49.7324 23.53 51.288 22.0513C52.4378 20.9575 53.0939 19.6477 53.0466 18.1623ZM30.1452 33.6914C30.2399 33.6779 30.409 33.6171 30.578 33.6171C31.2612 33.6441 31.5385 33.2728 31.694 32.6516C32.1404 30.8556 32.6612 29.0799 33.2767 27.3312C33.3782 27.0476 33.4526 26.7573 33.554 26.4737C33.696 26.0686 33.669 25.7445 33.2564 25.4677C32.5936 25.0289 32.1607 24.3874 31.8293 23.665C31.5182 22.9966 31.5047 22.9966 30.7471 23.0978C29.807 23.2261 28.8736 23.3882 27.9267 23.4962C26.9393 23.611 25.9315 23.8405 24.9711 23.719C23.9903 23.5907 23.4357 23.9148 22.9623 24.6643C22.8744 24.806 22.7391 24.9276 22.6173 25.0491C22.3874 25.2922 22.455 25.5082 22.6579 25.7175C22.7188 25.7783 22.7729 25.8458 22.8338 25.9066C25.0116 28.1212 27.0137 30.491 28.9818 32.8879C29.1442 33.0905 29.32 33.2795 29.4891 33.4753C29.6447 33.6441 29.8273 33.7387 30.1452 33.6914ZM39.0866 33.8939C39.0934 35.5549 39.9456 36.9187 41.3456 37.5129C42.793 38.1341 44.4433 37.7762 45.6405 36.5947C46.513 35.7304 46.9661 34.6636 46.9729 33.4618C46.9864 32.1115 46.5941 30.8354 45.3564 30.1264C43.3544 28.9786 41.7582 29.1542 40.2296 30.8151C39.4383 31.6726 39.0595 32.7191 39.0866 33.8939ZM32.066 5.55672C30.8554 5.19212 29.7394 4.86129 28.6234 4.53045C28.5828 4.51694 28.5422 4.50344 28.5016 4.48994C28.319 4.43592 28.1567 4.48319 28.0485 4.64523C27.9538 4.78702 27.8929 4.94906 27.8118 5.10435C27.2301 6.20489 26.3238 6.88007 25.0996 7.12313C24.9305 7.15689 24.7614 7.1974 24.5923 7.21766C24.2947 7.25142 24.1256 7.43371 24.0445 7.69703C23.8618 8.3182 23.6589 8.93936 23.5304 9.56728C23.3681 10.364 22.7932 11.1607 23.057 11.9304C23.314 12.6731 23.9498 13.2875 24.4232 13.9694C24.5382 13.9222 24.6735 13.8952 24.7682 13.8209C26.946 12.187 29.1171 10.5395 31.295 8.89885C31.4641 8.77057 31.6399 8.63553 31.809 8.50725C32.0322 8.33845 32.154 8.12915 32.1066 7.83882C31.9916 7.11638 32.039 6.38044 32.066 5.55672ZM36.6247 10.0467C38.4576 10.2154 40.5137 8.43973 40.534 6.21164C40.5475 4.58446 39.8171 3.3894 38.4102 2.83575C37.7474 2.57243 37.0575 2.59944 36.3676 2.66696C35.3937 2.75473 34.6632 3.22735 34.1154 4.01731C33.439 4.98957 33.2835 6.07661 33.4187 7.23116C33.5811 8.68279 35.0149 10.1209 36.6247 10.0467ZM39.1001 21.5719C39.276 19.3574 37.2266 17.6154 35.0961 18.3919C33.2699 19.0535 32.3501 20.6132 32.8438 22.6252C33.2632 24.3469 34.7579 25.2517 36.4962 24.8736C37.9436 24.563 39.0257 23.1924 39.1001 21.5719ZM21.5014 26.0214C20.7506 26.494 19.9187 26.9396 19.0259 27.2569C18.8365 27.3245 18.7892 27.4865 18.9109 27.6621C18.9583 27.7296 19.0191 27.7971 19.0868 27.8511C21.6028 30.0184 24.1189 32.1925 26.6417 34.3531C27.1354 34.7784 27.9673 34.7582 28.5355 34.3328C28.5896 34.2923 28.6234 34.1708 28.6031 34.11C28.5625 33.9952 28.4881 33.8737 28.4069 33.7859C26.1614 31.4498 24.1459 28.9179 22.0695 26.44C21.9342 26.2712 21.8125 26.0821 21.5014 26.0214ZM20.9738 4.69924C20.8182 4.82078 20.6694 4.9018 20.5545 5.03008C19.4858 6.21164 18.4239 7.40671 17.3621 8.59502C17.078 8.91235 17.1456 9.0744 17.6123 9.15542C19.1747 9.41199 20.6018 9.97914 21.8666 10.9379C22.0086 11.0459 22.1642 11.0999 22.3806 11.0122C22.6444 9.91162 22.9217 8.78407 23.1855 7.64977C23.3005 7.15014 23.2937 7.06912 22.8405 6.8058C22.0966 6.38044 21.5555 5.80653 21.2105 5.03008C21.1632 4.9153 21.0753 4.83428 20.9738 4.69924ZM48.0348 33.9952C48.3256 34.1032 48.5217 33.8939 48.7314 33.7589C49.6918 33.1512 50.4899 32.3883 51.1325 31.4498C51.2339 31.3013 51.3286 31.119 51.2407 30.9772C51.1122 30.7679 50.8619 30.8016 50.659 30.8691C50.4155 30.9502 50.1788 31.0582 49.9489 31.173C49.6783 31.308 49.4145 31.4498 49.1643 31.6253C48.7585 31.9157 48.0889 31.9359 47.9604 32.4828C47.8522 32.9622 47.8589 33.5023 48.0348 33.9952ZM35.3666 34.5691C34.5888 34.3936 34.0951 34.4678 33.6014 34.5219C33.4593 34.5354 33.3714 34.6501 33.3714 34.7717C33.3646 34.9945 33.4728 35.1768 33.6419 35.3186C33.7637 35.4198 33.8787 35.3591 33.9869 35.3051C34.3589 35.116 34.7241 34.9135 35.3666 34.5691Z" fill="white"/>
<path d="M59.0931 44.0622C59.0526 43.6098 59.2825 43.2317 59.4448 42.8333C59.6545 42.3202 59.898 41.8138 60.0874 41.2872C60.1956 40.9901 60.3985 40.7808 60.5744 40.5377C62.1706 38.2354 64.0644 36.1693 65.8702 34.029C66.1475 33.6982 66.4113 33.3606 66.6548 33.0095C66.8848 32.6786 66.9524 32.3005 66.8306 31.9022C66.7224 31.5443 66.364 31.3418 66.019 31.4836C65.7011 31.6119 65.39 31.7672 65.1059 31.9562C64.247 32.5301 63.4015 33.1243 62.5493 33.7117C62.272 33.9007 62.0353 34.1843 61.6498 34.1708L61.6768 34.2045C62.4884 33.185 63.4759 32.3411 64.4161 31.4633C64.7948 31.1122 65.2412 30.8287 65.7417 30.6666C66.6548 30.3763 67.3853 30.7949 67.6152 31.7266C67.7573 32.2938 67.6964 32.8542 67.3853 33.3471C67.135 33.7454 66.8442 34.1303 66.5533 34.5016C65.6741 35.6157 64.7813 36.723 63.9156 37.8032C64.0914 38.1138 64.247 37.9855 64.3822 37.9045C66.3031 36.7162 68.366 35.8317 70.4153 34.9067C71.0105 34.6367 71.6125 34.4003 72.2685 34.3328C72.884 34.2721 73.513 34.2991 73.858 34.9337C74.2164 35.5954 73.8444 36.095 73.4048 36.5407C72.3362 37.6142 71.2202 38.6202 69.9216 39.4237C66.9118 41.2939 63.9358 43.2182 60.9396 45.1087C56.8409 47.6946 52.6272 50.0645 48.1565 51.9685C45.309 53.1838 42.3534 53.9535 39.3098 54.4194C34.7985 55.1013 30.2601 55.1148 25.7218 54.757C21.3525 54.4126 17.0644 53.6227 12.871 52.3398C11.7551 52.0022 10.6661 51.5836 9.56366 51.192C8.21772 50.7127 6.87853 50.2265 5.53935 49.7337C5.09972 49.5716 4.62627 49.4838 4.22046 49.1665C4.53835 48.9977 4.82242 49.1057 5.09972 49.153C6.8109 49.4501 8.47473 49.9092 10.1115 50.4696C13.9262 51.7794 17.8422 52.6369 21.8395 53.2041C25.83 53.7712 29.8408 54.0345 33.8651 53.9468C38.8972 53.8455 43.7399 52.8665 48.312 50.7127C52.8098 48.5926 57.1588 46.2025 61.2981 43.4275C63.7397 41.7936 66.2287 40.2271 68.8191 38.8363C70.0771 38.1611 71.2811 37.3981 72.4106 36.5137C72.7487 36.2503 73.0937 35.987 73.3101 35.5954C73.4657 35.2983 73.3034 34.9607 72.9855 34.9067C72.6338 34.8527 72.2888 34.9 71.9642 35.0148C71.5989 35.143 71.2337 35.2916 70.8888 35.4671C68.4268 36.7297 65.9717 38.0058 63.503 39.2549C62.4682 39.7748 61.6498 40.4972 61.0275 41.4762C60.6352 42.0974 60.1956 42.6848 59.7695 43.2857C59.5734 43.5625 59.3975 43.8731 59.0661 44.0216L59.0931 44.0622Z" fill="white"/>
<path d="M53.2021 47.4312C53.0533 46.9585 53.1615 46.5804 53.2427 46.2023C53.4794 45.0613 53.8176 43.9405 54.2572 42.8602C55.38 40.1392 56.7394 37.5466 58.5386 35.1902C59.0864 34.4677 59.5734 33.7048 60.0739 32.9486C60.3106 32.584 60.4729 32.1721 60.5 31.74C60.5541 30.9568 59.8642 30.4504 59.1202 30.7003C58.7482 30.8285 58.4168 31.0446 58.1395 31.3147C57.7675 31.6725 57.3955 32.0371 57.0573 32.4287C55.4138 34.326 53.9393 36.3582 52.7828 38.5931C51.5721 40.9292 49.9218 42.8872 48.0077 44.6764C46.0463 46.5129 43.767 47.3029 41.1156 46.9315C39.3639 46.6885 37.6121 46.3914 35.8671 46.0673C32.9115 45.5204 29.949 45.3651 26.9663 45.8107C26.804 45.8377 26.6349 45.8107 26.4523 45.8107C26.5334 45.4056 26.8446 45.4191 27.0745 45.3584C29.3471 44.7237 31.667 44.5076 34.0072 44.7372C35.9415 44.9263 37.8624 45.2773 39.7426 45.7702C40.6219 45.9998 41.5079 46.1686 42.421 46.2294C44.3689 46.3711 45.9922 45.7027 47.284 44.2646C47.6831 43.819 48.055 43.3328 48.3797 42.8265C49.3739 41.26 50.3411 39.6734 51.3218 38.1002C52.7828 35.7438 54.4195 33.5225 56.408 31.578C56.9018 31.0919 57.4293 30.6395 58.0245 30.2816C58.5183 29.9846 59.0391 29.809 59.6275 29.8495C60.6488 29.917 61.3928 30.6867 61.4131 31.7063C61.4198 32.0979 61.359 32.4827 61.1831 32.8406C60.8652 33.455 60.6014 34.1032 60.2024 34.6568C57.6322 38.215 55.6032 42.0567 54.0137 46.1416C53.8717 46.4994 53.6756 46.8438 53.4929 47.1813C53.4591 47.2489 53.3712 47.2894 53.2021 47.4312Z" fill="white"/>
<path d="M20.7844 38.0393C20.7235 38.2689 20.5409 38.3904 20.3583 38.4984C18.1331 39.7948 15.7185 40.5577 13.1822 40.9156C11.471 41.1586 9.82067 40.8548 8.27859 40.0986C6.81089 39.3762 5.37026 38.5997 3.94991 37.7895C2.93538 37.2156 2.06288 36.4324 1.23773 35.6154C0.83868 35.2238 0.507266 34.7647 0 34.4946L0.0135271 34.5486C0.317887 34.5216 0.615483 34.5419 0.886025 34.7107C1.14304 34.866 1.42035 34.9943 1.66383 35.1698C3.67261 36.6012 5.89782 37.6477 8.08921 38.7617C10.1994 39.8353 12.3705 40.1796 14.731 39.7543C16.8209 39.3762 18.8635 38.917 20.8114 38.0596L20.7844 38.0393Z" fill="white"/>
<path d="M20.8114 38.06C21.0617 37.9249 21.3119 37.8709 21.5892 38.006C21.596 38.0127 21.5757 37.9992 21.5825 37.9992C21.3254 38.0195 21.0549 38.033 20.7844 38.0397C20.7844 38.0397 20.8114 38.06 20.8114 38.06Z" fill="black"/>
<path d="M0 34.4947C0.0200164 34.5082 0.0467051 34.5217 0.0667215 34.5284C0.0533772 34.4406 0.0400329 34.4474 0.0200164 34.5487C0.0133443 34.5554 0 34.4947 0 34.4947Z" fill="black"/>
<path d="M61.6498 34.1777C61.5618 34.2588 61.4739 34.3398 61.3792 34.414L61.4063 34.4478C61.4942 34.3668 61.5889 34.2858 61.6768 34.2115C61.6768 34.2047 61.6498 34.1777 61.6498 34.1777Z" fill="black"/>
<path d="M61.3792 34.4141C61.3115 34.5153 61.2439 34.6166 61.1763 34.7179L61.2033 34.7449C61.271 34.6504 61.3386 34.5491 61.4062 34.4478L61.3792 34.4141Z" fill="black"/>
<path d="M60.8854 35.0554C60.9937 34.9541 61.0951 34.8461 61.2033 34.7448L61.1763 34.7178C61.0681 34.8393 60.9598 34.9676 60.8516 35.0891L60.8854 35.0554Z" fill="black"/>
<path d="M60.8516 35.0883C60.8648 35.0751 60.878 35.0618 60.8845 35.0552L60.8516 35.0883Z" fill="black"/>
<path d="M48.21 40.2813L48.17 40.207C48.17 40.207 48.1967 40.2408 48.1967 40.2475C48.2033 40.2475 48.21 40.2813 48.21 40.2813Z" fill="black"/>
<path d="M59.0728 44.042L59.0991 44.068C59.0926 44.0615 59.0728 44.042 59.0728 44.042Z" fill="black"/>
<path d="M16.5504 26.6424C21.0403 26.6424 24.6802 23.0089 24.6802 18.5268C24.6802 14.0446 21.0403 10.4111 16.5504 10.4111C12.0604 10.4111 8.42059 14.0446 8.42059 18.5268C8.42059 23.0089 12.0604 26.6424 16.5504 26.6424Z" fill="#71C0C6"/>
</g>
<path d="M106.7 27.08C107.86 27.46 108.78 28.1 109.46 29C110.14 29.88 110.48 30.98 110.48 32.3C110.48 34.12 109.78 35.53 108.38 36.53C106.98 37.51 104.94 38 102.26 38H91.82V17H101.66C104.14 17 106.05 17.49 107.39 18.47C108.73 19.43 109.4 20.76 109.4 22.46C109.4 23.5 109.16 24.42 108.68 25.22C108.2 26.02 107.54 26.64 106.7 27.08ZM95.72 20.06V25.85H101.24C102.6 25.85 103.64 25.61 104.36 25.13C105.1 24.63 105.47 23.91 105.47 22.97C105.47 22.01 105.1 21.29 104.36 20.81C103.64 20.31 102.6 20.06 101.24 20.06H95.72ZM102.02 34.94C105.04 34.94 106.55 33.93 106.55 31.91C106.55 29.89 105.04 28.88 102.02 28.88H95.72V34.94H102.02ZM114.282 21.98H118.032V38H114.282V21.98ZM116.172 19.34C115.492 19.34 114.922 19.13 114.462 18.71C114.002 18.27 113.772 17.73 113.772 17.09C113.772 16.45 114.002 15.92 114.462 15.5C114.922 15.06 115.492 14.84 116.172 14.84C116.852 14.84 117.422 15.05 117.882 15.47C118.342 15.87 118.572 16.38 118.572 17C118.572 17.66 118.342 18.22 117.882 18.68C117.442 19.12 116.872 19.34 116.172 19.34ZM130.154 38.21C128.534 38.21 127.074 37.86 125.774 37.16C124.474 36.46 123.454 35.49 122.714 34.25C121.994 32.99 121.634 31.57 121.634 29.99C121.634 28.41 121.994 27 122.714 25.76C123.454 24.52 124.474 23.55 125.774 22.85C127.074 22.15 128.534 21.8 130.154 21.8C131.794 21.8 133.264 22.15 134.564 22.85C135.864 23.55 136.874 24.52 137.594 25.76C138.334 27 138.704 28.41 138.704 29.99C138.704 31.57 138.334 32.99 137.594 34.25C136.874 35.49 135.864 36.46 134.564 37.16C133.264 37.86 131.794 38.21 130.154 38.21ZM130.154 35C131.534 35 132.674 34.54 133.574 33.62C134.474 32.7 134.924 31.49 134.924 29.99C134.924 28.49 134.474 27.28 133.574 26.36C132.674 25.44 131.534 24.98 130.154 24.98C128.774 24.98 127.634 25.44 126.734 26.36C125.854 27.28 125.414 28.49 125.414 29.99C125.414 31.49 125.854 32.7 126.734 33.62C127.634 34.54 128.774 35 130.154 35ZM150.941 17H154.841V34.7H165.821V38H150.941V17ZM174.807 21.8C177.167 21.8 178.967 22.37 180.207 23.51C181.467 24.63 182.097 26.33 182.097 28.61V38H178.557V36.05C178.097 36.75 177.437 37.29 176.577 37.67C175.737 38.03 174.717 38.21 173.517 38.21C172.317 38.21 171.267 38.01 170.367 37.61C169.467 37.19 168.767 36.62 168.267 35.9C167.787 35.16 167.547 34.33 167.547 33.41C167.547 31.97 168.077 30.82 169.137 29.96C170.217 29.08 171.907 28.64 174.207 28.64H178.347V28.4C178.347 27.28 178.007 26.42 177.327 25.82C176.667 25.22 175.677 24.92 174.357 24.92C173.457 24.92 172.567 25.06 171.687 25.34C170.827 25.62 170.097 26.01 169.497 26.51L168.027 23.78C168.867 23.14 169.877 22.65 171.057 22.31C172.237 21.97 173.487 21.8 174.807 21.8ZM174.297 35.48C175.237 35.48 176.067 35.27 176.787 34.85C177.527 34.41 178.047 33.79 178.347 32.99V31.13H174.477C172.317 31.13 171.237 31.84 171.237 33.26C171.237 33.94 171.507 34.48 172.047 34.88C172.587 35.28 173.337 35.48 174.297 35.48ZM195.789 21.8C197.349 21.8 198.739 22.14 199.959 22.82C201.199 23.5 202.169 24.46 202.869 25.7C203.569 26.94 203.919 28.37 203.919 29.99C203.919 31.61 203.569 33.05 202.869 34.31C202.169 35.55 201.199 36.51 199.959 37.19C198.739 37.87 197.349 38.21 195.789 38.21C194.689 38.21 193.679 38.02 192.759 37.64C191.859 37.26 191.099 36.69 190.479 35.93V38H186.909V15.74H190.659V23.93C191.299 23.23 192.049 22.7 192.909 22.34C193.789 21.98 194.749 21.8 195.789 21.8ZM195.369 35C196.749 35 197.879 34.54 198.759 33.62C199.659 32.7 200.109 31.49 200.109 29.99C200.109 28.49 199.659 27.28 198.759 26.36C197.879 25.44 196.749 24.98 195.369 24.98C194.469 24.98 193.659 25.19 192.939 25.61C192.219 26.01 191.649 26.59 191.229 27.35C190.809 28.11 190.599 28.99 190.599 29.99C190.599 30.99 190.809 31.87 191.229 32.63C191.649 33.39 192.219 33.98 192.939 34.4C193.659 34.8 194.469 35 195.369 35Z" fill="white"/>
<defs>
<clipPath id="clip0_122_700">
<rect width="74" height="55" fill="white"/>
</clipPath>
</defs>
</svg>
